# xmcd
#
# Track frame offsets: 
#        150
#        20801
#        40227
#        55412
#        74392
#        91994
#        109352
#        130046
#        150767
#        172185
#        191687
#        210443
#        229864
#        248018
#        267493
#        290995
#        309554
#
# Disc length: 4434 seconds
#
# Revision: 2
# Processed by: cddbd v1.5.2PL0 Copyright (c) Steve Scherf et al.
# Submitted via: ExactAudioCopy v1.3
#
DISCID=fb115011
DTITLE=刘德华 - WE+ANDY LAU
DYEAR=2012
DGENRE=Pop
TTITLE0=悟
TTITLE1=Everyone is No. 1
TTITLE2=一
TTITLE3=??
TTITLE4=归宿
TTITLE5=????
TTITLE6=????;???
TTITLE7=??.???.???
TTITLE8=太想爱
TTITLE9=练习
TTITLE10=肉麻情歌
TTITLE11=?????
TTITLE12=?????
TTITLE13=????????
TTITLE14=男人哭吧不是罪
TTITLE15=我不够爱你
TTITLE16=你是我一生中最大的骄傲
EXTD=
EXTT0=
EXTT1=
EXTT2=
EXTT3=
EXTT4=
EXTT5=
EXTT6=
EXTT7=
EXTT8=
EXTT9=
EXTT10=
EXTT11=
EXTT12=
EXTT13=
EXTT14=
EXTT15=
EXTT16=
PLAYORDER=
